<?xml version="1.0" encoding="utf-8"?>
<!-- Generator: Adobe Illustrator 27.5.0, SVG Export Plug-In . SVG Version: 6.00 Build 0)  -->
<svg version="1.1" id="email" xmlns="http://www.w3.org/2000/svg" xmlns:xlink="http://www.w3.org/1999/xlink" x="0px" y="0px"
	 width="35px" height="23.6px" viewBox="0 0 35 23.6" style="enable-background:new 0 0 35 23.6;" xml:space="preserve">
<path d="M34.1,0H0.9C0.4,0,0,0.4,0,0.9v21.9c0,0.5,0.4,0.9,0.9,0.9h33.2c0.5,0,0.9-0.4,0.9-0.9V0.9C35,0.4,34.6,0,34.1,0z M32,1.8
	L17.5,16.3L3,1.8H32z M1.8,3l8.8,8.8l-8.8,8.8V3z M3,21.9l8.8-8.8l5.1,5.1c0.4,0.4,0.9,0.4,1.2,0l5.1-5.1l8.8,8.8H3z M33.2,20.6
	l-8.8-8.8L33.2,3V20.6z"/>
</svg>
